<?xml version="1.0" encoding="iso-8859-1"?>
<!-- Generator: Adobe Illustrator 19.0.0, SVG Export Plug-In . SVG Version: 6.00 Build 0)  -->
<svg version="1.1" id="Layer_1" xmlns="http://www.w3.org/2000/svg" xmlns:xlink="http://www.w3.org/1999/xlink" x="0px" y="0px"
	 viewBox="0 0 297 297" style="enable-background:new 0 0 297 297;" xml:space="preserve">
<g>
	<g id="XMLID_48_">
		<g>
			<path style="fill:#BDC3C7;" d="M63.648,169.162l71.18,71.19l-61.09,12.21c-0.93,0.19-1.78,0.65-2.45,1.32l-9.74,9.74
				l-21.17-21.18l9.74-9.73c0.66-0.67,1.12-1.53,1.31-2.45L63.648,169.162z"/>
			<path style="fill:#BDC3C7;" d="M230.278,81.592c2.81,2.81,2.81,7.38,0,10.19l-73.19,73.2c-2.81,2.81-7.38,2.81-10.19,0
				l-7.62-7.62c-2.81-2.81-2.81-7.38,0-10.19l73.19-73.2c1.36-1.36,3.17-2.11,5.1-2.11c1.92,0,3.73,0.75,5.09,2.11L230.278,81.592z"
				/>
			<polygon style="fill:#FFCD02;" points="53.918,271.242 45.428,279.732 13.668,269.152 32.748,250.072 			"/>
			<path style="fill:#FFCD02;" d="M283.918,54.022c4.41,4.41,4.71,11.58,0.68,16.34l-140.34,165.86l-76.48-76.49l165.85-140.34
				c4.76-4.02,11.94-3.73,16.34,0.68L283.918,54.022z M241.968,86.682c0-4.3-1.64-8.6-4.91-11.87l-7.61-7.62
				c-3.18-3.17-7.39-4.92-11.88-4.92s-8.71,1.75-11.88,4.92l-73.19,73.2c-3.17,3.17-4.92,7.39-4.92,11.87
				c0,4.49,1.75,8.71,4.92,11.88l7.62,7.62c3.27,3.27,7.57,4.91,11.87,4.91c4.3,0,8.61-1.64,11.88-4.91l73.19-73.2
				C240.328,95.282,241.968,90.982,241.968,86.682z"/>
			<path d="M290.698,47.242c7.91,7.9,8.44,20.78,1.22,29.31c0,0-143.78,169.92-143.83,169.95c-0.66,0.74-1.55,1.28-2.59,1.49
				l-68.46,13.69l-26.92,26.93c-0.92,0.91-2.14,1.4-3.4,1.4c-0.5,0-1.01-0.08-1.51-0.24l-41.93-13.98
				c-1.58-0.53-2.77-1.83-3.15-3.45c-0.38-1.61,0.1-3.31,1.28-4.49l40.9-40.9l13.69-68.45c0.22-1.09,0.79-1.99,1.57-2.67
				c0.01-0.01,169.87-143.76,169.87-143.76c8.53-7.22,21.41-6.69,29.31,1.22L290.698,47.242z M284.598,70.362
				c4.03-4.76,3.73-11.93-0.68-16.34l-33.95-33.95c-4.4-4.41-11.58-4.7-16.34-0.68l-165.85,140.34l76.48,76.49L284.598,70.362z
				 M134.828,240.352l-71.18-71.19l-12.22,61.1c-0.19,0.92-0.65,1.78-1.31,2.45l-9.74,9.73l21.17,21.18l9.74-9.74
				c0.67-0.67,1.52-1.13,2.45-1.32L134.828,240.352z M45.428,279.732l8.49-8.49l-21.17-21.17l-19.08,19.08L45.428,279.732z"/>
			<path d="M237.058,74.812c3.27,3.27,4.91,7.57,4.91,11.87s-1.64,8.6-4.91,11.88l-73.19,73.2c-3.27,3.27-7.58,4.91-11.88,4.91
				s-8.6-1.64-11.87-4.91l-7.62-7.62c-3.17-3.17-4.92-7.39-4.92-11.88c0-4.48,1.75-8.7,4.92-11.87l73.19-73.2
				c3.17-3.17,7.39-4.92,11.88-4.92s8.7,1.75,11.88,4.92L237.058,74.812z M230.278,91.782c2.81-2.81,2.81-7.38,0-10.19l-7.62-7.62
				c-1.36-1.36-3.17-2.11-5.09-2.11c-1.93,0-3.74,0.75-5.1,2.11l-73.19,73.2c-2.81,2.81-2.81,7.38,0,10.19l7.62,7.62
				c2.81,2.81,7.38,2.81,10.19,0L230.278,91.782z"/>
		</g>
	</g>
</g>
<g>
</g>
<g>
</g>
<g>
</g>
<g>
</g>
<g>
</g>
<g>
</g>
<g>
</g>
<g>
</g>
<g>
</g>
<g>
</g>
<g>
</g>
<g>
</g>
<g>
</g>
<g>
</g>
<g>
</g>
</svg>
