<?xml version="1.0" encoding="UTF-8"?>
<svg xmlns="http://www.w3.org/2000/svg" xmlns:xlink="http://www.w3.org/1999/xlink" width="192pt" height="256pt" viewBox="0 0 192 256" version="1.1">
<g id="surface1">
<path style=" stroke:none;fill-rule:nonzero;fill:rgb(0%,0%,0%);fill-opacity:1;" d="M 153 117.058594 C 166.871094 106.871094 176 90.554688 176 72 C 176 41.070312 150.929688 16 120 16 L 20 16 C 17.789062 16 16 17.789062 16 20 L 16 28 C 16 30.210938 17.789062 32 20 32 L 32 32 L 32 224 L 20 224 C 17.789062 224 16 225.789062 16 228 L 16 236 C 16 238.210938 17.789062 240 20 240 L 128 240 C 158.453125 240.027344 184.707031 218.59375 190.773438 188.753906 C 196.84375 158.910156 181.042969 128.925781 153 117.058594 Z M 48 32 L 120 32 C 142.089844 32 160 49.910156 160 72 C 160 94.089844 142.089844 112 120 112 L 48 112 Z M 128 224 L 48 224 L 48 128 L 128 128 C 154.507812 128 176 149.492188 176 176 C 176 202.507812 154.507812 224 128 224 Z M 128 224 "/>
</g>
</svg>
