<?xml version="1.0" encoding="UTF-8"?>
<svg xmlns="http://www.w3.org/2000/svg" xmlns:xlink="http://www.w3.org/1999/xlink" width="192pt" height="307pt" viewBox="0 0 192 307" version="1.1">
<g id="surface1">
<path style=" stroke:none;fill-rule:nonzero;fill:rgb(0%,0%,0%);fill-opacity:1;" d="M 192 23.984375 L 192 33.578125 C 192 36.226562 189.851562 38.375 187.199219 38.375 L 134.699219 38.375 L 77.101562 268.625 L 129.601562 268.625 C 132.25 268.625 134.398438 270.773438 134.398438 273.421875 L 134.398438 283.015625 C 134.398438 285.664062 132.25 287.8125 129.601562 287.8125 L 4.800781 287.8125 C 2.148438 287.8125 0 285.664062 0 283.015625 L 0 273.421875 C 0 270.773438 2.148438 268.625 4.800781 268.625 L 57.300781 268.625 L 114.898438 38.375 L 62.398438 38.375 C 59.75 38.375 57.601562 36.226562 57.601562 33.578125 L 57.601562 23.984375 C 57.601562 21.335938 59.75 19.1875 62.398438 19.1875 L 187.199219 19.1875 C 189.851562 19.1875 192 21.335938 192 23.984375 Z M 192 23.984375 "/>
</g>
</svg>
