<?xml version="1.0" encoding="utf-8"?>
<!-- Uploaded to: SVG Repo, www.svgrepo.com, Generator: SVG Repo Mixer Tools -->
<svg fill="#000000" width="800px" height="800px" viewBox="0 0 512 512" xmlns="http://www.w3.org/2000/svg">
  <g id="_40_Hyperlink" data-name="40 Hyperlink" transform="translate(0 0)">
    <g id="Group_103" data-name="Group 103">
      <path id="Path_51" data-name="Path 51" d="M503.466,132.268,379.733,8.534a29.17,29.17,0,0,0-41.234,0L214.767,132.268a29.15,29.15,0,0,0,0,41.265l20.6,20.6L359.1,70.4l82.5,82.5L317.867,276.633,338.5,297.265a29.169,29.169,0,0,0,41.234,0L503.465,173.533A29.207,29.207,0,0,0,503.466,132.268Z" fill-rule="evenodd"/>
      <path id="Path_52" data-name="Path 52" d="M276.633,317.866,152.9,441.6,70.4,359.1,194.133,235.368,173.5,214.736a29.167,29.167,0,0,0-41.233,0L8.534,338.468a29.208,29.208,0,0,0,0,41.265L132.267,503.466a29.169,29.169,0,0,0,41.233,0L297.233,379.733a29.152,29.152,0,0,0,0-41.265Z" fill-rule="evenodd"/>
      <path id="Path_53" data-name="Path 53" d="M173.5,338.468a29.153,29.153,0,0,0,41.266,0L338.5,214.736a29.157,29.157,0,0,0-41.265-41.2L173.5,297.265A29.133,29.133,0,0,0,173.5,338.468Z" fill-rule="evenodd"/>
    </g>
  </g>
</svg>