<?xml version="1.0" encoding="UTF-8"?>
<svg xmlns="http://www.w3.org/2000/svg" xmlns:xlink="http://www.w3.org/1999/xlink" width="192pt" height="219pt" viewBox="0 0 192 219" version="1.1">
<g id="surface1">
<path style=" stroke:none;fill-rule:nonzero;fill:rgb(0%,0%,0%);fill-opacity:1;" d="M 188.570312 0 L 126.855469 0 C 124.964844 0 123.429688 1.53125 123.429688 3.421875 L 123.429688 10.265625 C 123.429688 12.15625 124.964844 13.6875 126.855469 13.6875 L 150.855469 13.6875 L 150.855469 109.5 C 150.855469 139.738281 126.296875 164.25 96 164.25 C 65.703125 164.25 41.144531 139.738281 41.144531 109.5 L 41.144531 13.6875 L 65.144531 13.6875 C 67.035156 13.6875 68.570312 12.15625 68.570312 10.265625 L 68.570312 3.421875 C 68.570312 1.53125 67.035156 0 65.144531 0 L 3.429688 0 C 1.535156 0 0 1.53125 0 3.421875 L 0 10.265625 C 0 12.15625 1.535156 13.6875 3.429688 13.6875 L 27.429688 13.6875 L 27.429688 109.5 C 27.429688 147.234375 58.191406 177.9375 96 177.9375 C 133.808594 177.9375 164.570312 147.234375 164.570312 109.5 L 164.570312 13.6875 L 188.570312 13.6875 C 190.464844 13.6875 192 12.15625 192 10.265625 L 192 3.421875 C 192 1.53125 190.464844 0 188.570312 0 Z M 188.570312 205.3125 L 3.429688 205.3125 C 1.535156 205.3125 0 206.84375 0 208.734375 L 0 215.578125 C 0 217.46875 1.535156 219 3.429688 219 L 188.570312 219 C 190.464844 219 192 217.46875 192 215.578125 L 192 208.734375 C 192 206.84375 190.464844 205.3125 188.570312 205.3125 Z M 188.570312 205.3125 "/>
</g>
</svg>
